<?xml version="1.0" encoding="iso-8859-1"?>
<!-- Generator: Adobe Illustrator 20.1.0, SVG Export Plug-In . SVG Version: 6.00 Build 0)  -->
<svg version="1.1" id="Sun" xmlns="http://www.w3.org/2000/svg" xmlns:xlink="http://www.w3.org/1999/xlink" x="0px" y="0px"
	 viewBox="0 0 66 62.88" style="enable-background:new 0 0 66 62.88;" xml:space="preserve">
<g>
	<g id="XMLID_44_">
		<g>
			<path style="fill:#FDB51E;" d="M57.73,23.4L65,31.44l-7.27,8.04l1.16,10.77l-10.61,2.23l-5.39,9.4L33,57.44l-9.89,4.44l-5.39-9.4
				L7.11,50.25l1.16-10.77L1,31.44l7.27-8.04L7.11,12.63l10.61-2.23L23.11,1L33,5.44L42.89,1l5.39,9.4l10.61,2.23L57.73,23.4z
				 M54,31.44c0-11.6-9.4-21-21-21s-21,9.4-21,21s9.4,21,21,21S54,43.04,54,31.44z"/>
			<circle style="fill:#FFD311;" cx="33" cy="31.44" r="21"/>
			<circle style="fill:#FCC418;" cx="33" cy="31.44" r="16"/>
		</g>
		<g>
			
				<circle style="fill:none;stroke:#000000;stroke-width:2;stroke-linejoin:round;stroke-miterlimit:10;" cx="33" cy="31.44" r="21"/>
			<polygon style="fill:none;stroke:#000000;stroke-width:2;stroke-linejoin:round;stroke-miterlimit:10;" points="65,31.44 
				57.73,39.48 58.89,50.25 48.28,52.48 42.89,61.88 33,57.44 23.11,61.88 17.72,52.48 7.11,50.25 8.27,39.48 1,31.44 8.27,23.4 
				7.11,12.63 17.72,10.4 23.11,1 33,5.44 42.89,1 48.28,10.4 58.89,12.63 57.73,23.4 			"/>
			<path style="fill:none;stroke:#000000;stroke-width:2;stroke-linejoin:round;stroke-miterlimit:10;" d="M20,30.44
				c0-7.18,5.82-13,13-13"/>
		</g>
	</g>
</g>
</svg>
