<?xml version="1.0" encoding="iso-8859-1"?>
<!-- Generator: Adobe Illustrator 20.1.0, SVG Export Plug-In . SVG Version: 6.00 Build 0)  -->
<svg version="1.1" id="Night-rainy" xmlns="http://www.w3.org/2000/svg" xmlns:xlink="http://www.w3.org/1999/xlink" x="0px"
	 y="0px" viewBox="0 0 64 59" style="enable-background:new 0 0 64 59;" xml:space="preserve">
<g>
	<g>
		<g>
			<path style="fill:#575F81;" d="M47.93,20.12C56.41,21.08,63,28.27,63,37c0,9.39-7.61,17-17,17c-7.32,0-25.24,0-32,0
				C6.82,54,1,48.18,1,41s5.82-13,13-13c0.38,0,0.76,0.02,1.14,0.06C15.05,27.38,15,26.7,15,26c0-9.39,7.61-17,17-17
				C39.32,9,45.54,13.63,47.93,20.12z"/>
		</g>
		<g>
			<path style="fill:#474E6A;" d="M11,44c0-7.18,5.82-13,13-13c0.38,0,0.76,0.02,1.14,0.06C25.05,30.38,25,29.7,25,29
				c0-9.271,7.422-16.793,16.648-16.982C38.91,10.118,35.589,9,32,9c-9.39,0-17,7.61-17,17c0,0.7,0.05,1.38,0.14,2.06
				C14.76,28.02,14.38,28,14,28C6.82,28,1,33.82,1,41s5.82,13,13,13c0.504,0,1.077,0,1.696,0C12.828,51.615,11,48.022,11,44z"/>
		</g>
	</g>
	<g>
		<g>
			<g>
				<g>
					<path style="fill:none;stroke:#000000;stroke-width:2;stroke-linejoin:round;stroke-miterlimit:10;" d="M46,54
						c9.389,0,17-7.611,17-17c0-5.192-2.329-9.838-5.999-12.954"/>
					<path style="fill:none;stroke:#000000;stroke-width:2;stroke-linejoin:round;stroke-miterlimit:10;" d="M32,9
						c-9.389,0-17,7.611-17,17c0,0.698,0.055,1.382,0.136,2.057C14.761,28.025,14.384,28,14,28C6.82,28,1,33.82,1,41s5.82,13,13,13"
						/>
					<path style="fill:none;stroke:#000000;stroke-width:2;stroke-linejoin:round;stroke-miterlimit:10;" d="M21,25
						c0-5.523,4.477-10,10-10"/>
				</g>
			</g>
			<g>
				<g id="XMLID_53_">
					<g>
						<path style="fill:#FFD311;" d="M52.5,2.48C49.22,4.39,47,7.93,47,12s2.22,7.61,5.5,9.52C50.88,22.45,49.01,23,47,23
							c-6.08,0-11-4.92-11-11S40.92,1,47,1C49.01,1,50.88,1.55,52.5,2.48z"/>
					</g>
					<g>
						<path style="fill:none;stroke:#000000;stroke-width:2;stroke-linejoin:round;stroke-miterlimit:10;" d="M47,12
							c0-4.07,2.22-7.61,5.5-9.52C50.88,1.55,49.01,1,47,1c-6.08,0-11,4.92-11,11s4.92,11,11,11c2.01,0,3.88-0.55,5.5-1.48
							C49.22,19.61,47,16.07,47,12z"/>
					</g>
				</g>
			</g>
			<path style="fill:none;stroke:#000000;stroke-width:2;stroke-linejoin:round;stroke-miterlimit:10;" d="M40,11
				c0-3.314,2.686-6,6-6"/>
		</g>
		
			<line style="fill:none;stroke:#000000;stroke-width:2;stroke-linejoin:round;stroke-miterlimit:10;" x1="30" y1="47" x2="30" y2="51"/>
		
			<line style="fill:none;stroke:#000000;stroke-width:2;stroke-linejoin:round;stroke-miterlimit:10;" x1="43" y1="48" x2="43" y2="52"/>
		
			<line style="fill:none;stroke:#000000;stroke-width:2;stroke-linejoin:round;stroke-miterlimit:10;" x1="17" y1="48" x2="17" y2="52"/>
		
			<line style="fill:none;stroke:#000000;stroke-width:2;stroke-linejoin:round;stroke-miterlimit:10;" x1="30" y1="55" x2="30" y2="59"/>
		
			<line style="fill:none;stroke:#000000;stroke-width:2;stroke-linejoin:round;stroke-miterlimit:10;" x1="40" y1="55" x2="40" y2="59"/>
		
			<line style="fill:none;stroke:#000000;stroke-width:2;stroke-linejoin:round;stroke-miterlimit:10;" x1="20" y1="55" x2="20" y2="59"/>
		
			<line style="fill:none;stroke:#000000;stroke-width:2;stroke-linejoin:round;stroke-miterlimit:10;" x1="36" y1="50" x2="36" y2="54"/>
		
			<line style="fill:none;stroke:#000000;stroke-width:2;stroke-linejoin:round;stroke-miterlimit:10;" x1="24" y1="50" x2="24" y2="54"/>
	</g>
</g>
</svg>
