<?xml version="1.0" encoding="iso-8859-1"?>
<!-- Generator: Adobe Illustrator 20.1.0, SVG Export Plug-In . SVG Version: 6.00 Build 0)  -->
<svg version="1.1" id="Snow" xmlns="http://www.w3.org/2000/svg" xmlns:xlink="http://www.w3.org/1999/xlink" x="0px" y="0px"
	 viewBox="0 0 64 59.707" style="enable-background:new 0 0 64 59.707;" xml:space="preserve">
<g>
	<g>
		<g>
			<path style="fill:#00ABD5;" d="M47.93,12.12C56.41,13.08,63,20.27,63,29c0,9.39-7.61,17-17,17c-7.32,0-25.24,0-32,0
				C6.82,46,1,40.18,1,33s5.82-13,13-13c0.38,0,0.76,0.02,1.14,0.06C15.05,19.38,15,18.7,15,18c0-9.39,7.61-17,17-17
				C39.32,1,45.54,5.63,47.93,12.12z"/>
		</g>
		<g>
			<path style="fill:#00A2D4;" d="M11,35.854c0-7.18,5.82-12.927,13-12.927c0.38,0,0.76,0.057,1.14,0.097
				c-0.09-0.68-0.14-1.342-0.14-2.042c0-9.271,7.422-16.784,16.648-16.973C38.91,2.109,35.589,0.995,32,0.995
				c-9.39,0-17,7.612-17,17.002c0,0.7,0.05,1.381,0.14,2.061c-0.38-0.04-0.76-0.059-1.14-0.059c-7.18,0-13,5.674-13,12.854
				s5.82,12.854,13,12.854c0.504,0,1.077,0,1.696,0C12.828,43.707,11,39.875,11,35.854z"/>
		</g>
	</g>
	<g>
		<g>
			<g>
				<g>
					<path style="fill:none;stroke:#000000;stroke-width:2;stroke-linejoin:round;stroke-miterlimit:10;" d="M46,46
						c9.389,0,17-7.611,17-17c0-8.734-6.59-15.922-15.067-16.883C45.537,5.632,39.318,1,32,1c-9.389,0-17,7.611-17,17
						c0,0.698,0.055,1.382,0.136,2.057C14.761,20.025,14.384,20,14,20C6.82,20,1,25.82,1,33s5.82,13,13,13"/>
					<path style="fill:none;stroke:#000000;stroke-width:2;stroke-linejoin:round;stroke-miterlimit:10;" d="M21,17
						c0-5.523,4.477-10,10-10"/>
				</g>
			</g>
		</g>
		<g>
			<polyline style="fill:none;stroke:#000000;stroke-width:2;stroke-linejoin:round;stroke-miterlimit:10;" points="37,45.854 
				35,47.707 29,47.707 27,45.78 			"/>
			<polyline style="fill:none;stroke:#000000;stroke-width:2;stroke-linejoin:round;stroke-miterlimit:10;" points="30,43 32,45 
				32,51 30,53 			"/>
			
				<line style="fill:none;stroke:#000000;stroke-width:2;stroke-linejoin:round;stroke-miterlimit:10;" x1="34" y1="43" x2="32" y2="45"/>
			
				<line style="fill:none;stroke:#000000;stroke-width:2;stroke-linejoin:round;stroke-miterlimit:10;" x1="32" y1="51" x2="34" y2="53"/>
			
				<line style="fill:none;stroke:#000000;stroke-width:2;stroke-linejoin:round;stroke-miterlimit:10;" x1="35" y1="48" x2="37" y2="50"/>
			
				<line style="fill:none;stroke:#000000;stroke-width:2;stroke-linejoin:round;stroke-miterlimit:10;" x1="29" y1="48" x2="27" y2="50"/>
		</g>
		<g>
			<polyline style="fill:none;stroke:#000000;stroke-width:2;stroke-linejoin:round;stroke-miterlimit:10;" points="26,51.854 
				24,53.707 18,53.707 16,51.78 			"/>
			<polyline style="fill:none;stroke:#000000;stroke-width:2;stroke-linejoin:round;stroke-miterlimit:10;" points="19,49 21,51 
				21,57 19,59 			"/>
			
				<line style="fill:none;stroke:#000000;stroke-width:2;stroke-linejoin:round;stroke-miterlimit:10;" x1="23" y1="49" x2="21" y2="51"/>
			
				<line style="fill:none;stroke:#000000;stroke-width:2;stroke-linejoin:round;stroke-miterlimit:10;" x1="21" y1="57" x2="23" y2="59"/>
			
				<line style="fill:none;stroke:#000000;stroke-width:2;stroke-linejoin:round;stroke-miterlimit:10;" x1="24" y1="54" x2="26" y2="56"/>
			
				<line style="fill:none;stroke:#000000;stroke-width:2;stroke-linejoin:round;stroke-miterlimit:10;" x1="18" y1="54" x2="16" y2="56"/>
		</g>
		<g>
			<polyline style="fill:none;stroke:#000000;stroke-width:2;stroke-linejoin:round;stroke-miterlimit:10;" points="48,51.854 
				46,53.707 40,53.707 38,51.78 			"/>
			<polyline style="fill:none;stroke:#000000;stroke-width:2;stroke-linejoin:round;stroke-miterlimit:10;" points="41,49 43,51 
				43,57 41,59 			"/>
			
				<line style="fill:none;stroke:#000000;stroke-width:2;stroke-linejoin:round;stroke-miterlimit:10;" x1="45" y1="49" x2="43" y2="51"/>
			
				<line style="fill:none;stroke:#000000;stroke-width:2;stroke-linejoin:round;stroke-miterlimit:10;" x1="43" y1="57" x2="45" y2="59"/>
			
				<line style="fill:none;stroke:#000000;stroke-width:2;stroke-linejoin:round;stroke-miterlimit:10;" x1="46" y1="54" x2="48" y2="56"/>
			
				<line style="fill:none;stroke:#000000;stroke-width:2;stroke-linejoin:round;stroke-miterlimit:10;" x1="40" y1="54" x2="38" y2="56"/>
		</g>
	</g>
</g>
</svg>
