<?xml version="1.0" encoding="iso-8859-1"?>
<!-- Generator: Adobe Illustrator 20.1.0, SVG Export Plug-In . SVG Version: 6.00 Build 0)  -->
<svg version="1.1" id="Sunshine" xmlns="http://www.w3.org/2000/svg" xmlns:xlink="http://www.w3.org/1999/xlink" x="0px" y="0px"
	 viewBox="0 0 64 60" style="enable-background:new 0 0 64 60;" xml:space="preserve">
<g>
	<g>
		<g>
			<path style="fill:#00ABD5;" d="M47.93,25.12C56.41,26.08,63,33.27,63,42c0,9.39-7.61,17-17,17c-7.32,0-25.24,0-32,0
				C6.82,59,1,53.18,1,46s5.82-13,13-13c0.38,0,0.76,0.02,1.14,0.06C15.05,32.38,15,31.7,15,31c0-9.39,7.61-17,17-17
				C39.32,14,45.54,18.63,47.93,25.12z"/>
		</g>
		<g>
			<path style="fill:#00A2D4;" d="M11,49c0-7.18,5.82-13,13-13c0.38,0,0.76,0.02,1.14,0.06C25.05,35.38,25,34.7,25,34
				c0-9.271,7.422-16.793,16.648-16.982C38.91,15.118,35.589,14,32,14c-9.39,0-17,7.61-17,17c0,0.7,0.05,1.38,0.14,2.06
				C14.76,33.02,14.38,33,14,33C6.82,33,1,38.82,1,46s5.82,13,13,13c0.504,0,1.077,0,1.696,0C12.828,56.615,11,53.022,11,49z"/>
		</g>
	</g>
	<g>
		<g>
			<path style="fill:none;stroke:#000000;stroke-width:2;stroke-linejoin:round;stroke-miterlimit:10;" d="M32,14
				c-9.389,0-17,7.611-17,17c0,0.698,0.055,1.382,0.136,2.057C14.761,33.025,14.384,33,14,33C6.82,33,1,38.82,1,46s5.82,13,13,13
				c6.763,0,24.682,0,32,0c9.389,0,17-7.611,17-17c0-5.192-2.329-9.838-5.999-12.954"/>
			<path style="fill:none;stroke:#000000;stroke-width:2;stroke-linejoin:round;stroke-miterlimit:10;" d="M21,30
				c0-5.523,4.477-10,10-10"/>
		</g>
		<g id="XMLID_4_">
			<g>
				<circle style="fill:#FFD311;" cx="46" cy="18" r="11"/>
			</g>
			<g>
				<circle style="fill:none;stroke:#000000;stroke-width:2;stroke-linejoin:round;stroke-miterlimit:10;" cx="46" cy="18" r="11"/>
			</g>
		</g>
		
			<line style="fill:none;stroke:#000000;stroke-width:2;stroke-linejoin:round;stroke-miterlimit:10;" x1="64" y1="18" x2="60" y2="18"/>
		
			<line style="fill:none;stroke:#000000;stroke-width:2;stroke-linejoin:round;stroke-miterlimit:10;" x1="46" y1="4" x2="46" y2="0"/>
		
			<line style="fill:none;stroke:#000000;stroke-width:2;stroke-linejoin:round;stroke-miterlimit:10;" x1="46" y1="36" x2="46" y2="32"/>
		
			<line style="fill:none;stroke:#000000;stroke-width:2;stroke-linejoin:round;stroke-miterlimit:10;" x1="57" y1="8" x2="60" y2="5"/>
		
			<line style="fill:none;stroke:#000000;stroke-width:2;stroke-linejoin:round;stroke-miterlimit:10;" x1="36" y1="8" x2="33" y2="5"/>
		
			<line style="fill:none;stroke:#000000;stroke-width:2;stroke-linejoin:round;stroke-miterlimit:10;" x1="33" y1="31" x2="36" y2="28"/>
		<path style="fill:none;stroke:#000000;stroke-width:2;stroke-linejoin:round;stroke-miterlimit:10;" d="M40,18
			c0-3.314,2.686-6,6-6"/>
	</g>
</g>
</svg>
