<?xml version="1.0" encoding="iso-8859-1"?>
<!-- Generator: Adobe Illustrator 20.1.0, SVG Export Plug-In . SVG Version: 6.00 Build 0)  -->
<svg version="1.1" id="Rainy-thunder" xmlns="http://www.w3.org/2000/svg" xmlns:xlink="http://www.w3.org/1999/xlink" x="0px"
	 y="0px" viewBox="0 0 64 62" style="enable-background:new 0 0 64 62;" xml:space="preserve">
<g>
	<g>
		<g>
			<path style="fill:#00ABD5;" d="M47.93,12.12C56.41,13.08,63,20.27,63,29c0,9.39-7.61,17-17,17c-7.32,0-25.24,0-32,0
				C6.82,46,1,40.18,1,33s5.82-13,13-13c0.38,0,0.76,0.02,1.14,0.06C15.05,19.38,15,18.7,15,18c0-9.39,7.61-17,17-17
				C39.32,1,45.54,5.63,47.93,12.12z"/>
		</g>
		<g>
			<path style="fill:#00A2D4;" d="M11,36c0-7.18,5.82-13,13-13c0.38,0,0.76,0.02,1.14,0.06C25.05,22.38,25,21.7,25,21
				c0-9.271,7.422-16.793,16.648-16.982C38.91,2.118,35.589,1,32,1c-9.39,0-17,7.61-17,17c0,0.7,0.05,1.38,0.14,2.06
				C14.76,20.02,14.38,20,14,20C6.82,20,1,25.82,1,33s5.82,13,13,13c0.504,0,1.077,0,1.696,0C12.828,43.615,11,40.022,11,36z"/>
		</g>
	</g>
	<g>
		<g>
			<g>
				<g>
					<path style="fill:none;stroke:#000000;stroke-width:2;stroke-linejoin:round;stroke-miterlimit:10;" d="M46,46
						c9.389,0,17-7.611,17-17c0-8.734-6.59-15.922-15.067-16.883C45.537,5.632,39.318,1,32,1c-9.389,0-17,7.611-17,17
						c0,0.698,0.055,1.382,0.136,2.057C14.761,20.025,14.384,20,14,20C6.82,20,1,25.82,1,33s5.82,13,13,13"/>
					<path style="fill:none;stroke:#000000;stroke-width:2;stroke-linejoin:round;stroke-miterlimit:10;" d="M21,17
						c0-5.523,4.477-10,10-10"/>
				</g>
			</g>
			<polyline style="fill:none;stroke:#000000;stroke-width:2;stroke-linejoin:round;stroke-miterlimit:10;" points="30,46 26,53 
				32,53 28,61 			"/>
		</g>
		
			<line style="fill:none;stroke:#000000;stroke-width:2;stroke-linejoin:round;stroke-miterlimit:10;" x1="42" y1="46" x2="42" y2="50"/>
		
			<line style="fill:none;stroke:#000000;stroke-width:2;stroke-linejoin:round;stroke-miterlimit:10;" x1="45" y1="52" x2="45" y2="56"/>
		
			<line style="fill:none;stroke:#000000;stroke-width:2;stroke-linejoin:round;stroke-miterlimit:10;" x1="39" y1="52" x2="39" y2="56"/>
		
			<line style="fill:none;stroke:#000000;stroke-width:2;stroke-linejoin:round;stroke-miterlimit:10;" x1="20" y1="52" x2="20" y2="56"/>
		
			<line style="fill:none;stroke:#000000;stroke-width:2;stroke-linejoin:round;stroke-miterlimit:10;" x1="14" y1="52" x2="14" y2="56"/>
		
			<line style="fill:none;stroke:#000000;stroke-width:2;stroke-linejoin:round;stroke-miterlimit:10;" x1="17" y1="58" x2="17" y2="62"/>
		
			<line style="fill:none;stroke:#000000;stroke-width:2;stroke-linejoin:round;stroke-miterlimit:10;" x1="23" y1="58" x2="23" y2="62"/>
		
			<line style="fill:none;stroke:#000000;stroke-width:2;stroke-linejoin:round;stroke-miterlimit:10;" x1="37" y1="58" x2="37" y2="62"/>
		
			<line style="fill:none;stroke:#000000;stroke-width:2;stroke-linejoin:round;stroke-miterlimit:10;" x1="43" y1="58" x2="43" y2="62"/>
		
			<line style="fill:none;stroke:#000000;stroke-width:2;stroke-linejoin:round;stroke-miterlimit:10;" x1="37" y1="46" x2="37" y2="50"/>
		
			<line style="fill:none;stroke:#000000;stroke-width:2;stroke-linejoin:round;stroke-miterlimit:10;" x1="23" y1="46" x2="23" y2="50"/>
		
			<line style="fill:none;stroke:#000000;stroke-width:2;stroke-linejoin:round;stroke-miterlimit:10;" x1="18" y1="46" x2="18" y2="50"/>
	</g>
</g>
</svg>
