<?xml version="1.0" encoding="iso-8859-1"?>
<!-- Generator: Adobe Illustrator 20.1.0, SVG Export Plug-In . SVG Version: 6.00 Build 0)  -->
<svg version="1.1" id="tonado" xmlns="http://www.w3.org/2000/svg" xmlns:xlink="http://www.w3.org/1999/xlink" x="0px" y="0px"
	 viewBox="0 0 62 64" style="enable-background:new 0 0 62 64;" xml:space="preserve">
<g>
	<g id="XMLID_35_">
		<g>
			<path style="fill:#F1F2F2;" d="M56,11c2.75,0,5,2.25,5,5s-2.25,5-5,5h-1c2.75,0,5,2.25,5,5s-2.25,5-5,5h-6.5
				c2.47,0,4.5,2.02,4.5,4.5c0,2.47-2.03,4.5-4.5,4.5H48c2.75,0,5,2.25,5,5s-2.25,5-5,5h-8c2.2,0,4,1.8,4,4s-1.8,4-4,4h-4.5
				c1.38,0,2.5,1.12,2.5,2.5S36.88,63,35.5,63h-8c-1.38,0-2.5-1.12-2.5-2.5s1.12-2.5,2.5-2.5H16c-2.2,0-4-1.8-4-4s1.8-4,4-4h8
				c-2.75,0-5-2.25-5-5s2.25-5,5-5H7.5C5.03,40,3,37.97,3,35.5C3,33.02,5.03,31,7.5,31H15c-2.75,0-5-2.25-5-5s2.25-5,5-5H6
				c-2.75,0-5-2.25-5-5s2.25-5,5-5h3c-2.75,0-5-2.25-5-5s2.25-5,5-5h44c2.75,0,5,2.25,5,5s-2.25,5-5,5H56z"/>
		</g>
		<g>
			<path style="fill:#D9DEDF;" d="M19,45c0,2.75,2.25,5,5,5h16h8c2.75,0,5-2.25,5-5s-2.25-5-5-5H24C21.25,40,19,42.25,19,45z"/>
			<path style="fill:#D9DEDF;" d="M25,60.5c0,1.38,1.12,2.5,2.5,2.5h8c1.38,0,2.5-1.12,2.5-2.5S36.88,58,35.5,58h-8
				C26.12,58,25,59.12,25,60.5z"/>
			<path style="fill:#D9DEDF;" d="M58,6c0-2.75-2.25-5-5-5H9C6.25,1,4,3.25,4,6s2.25,5,5,5h44C55.75,11,58,8.75,58,6z"/>
			<path style="fill:#D9DEDF;" d="M10,26c0,2.75,2.25,5,5,5h33.5H55c2.75,0,5-2.25,5-5s-2.25-5-5-5H15C12.25,21,10,23.25,10,26z"/>
		</g>
		<g>
			<path style="fill:none;stroke:#000000;stroke-width:2;stroke-linejoin:round;stroke-miterlimit:10;" d="M55,21h1
				c2.75,0,5-2.25,5-5s-2.25-5-5-5h-3c2.75,0,5-2.25,5-5s-2.25-5-5-5H9C6.25,1,4,3.25,4,6s2.25,5,5,5H6c-2.75,0-5,2.25-5,5
				s2.25,5,5,5h9c-2.75,0-5,2.25-5,5s2.25,5,5,5H7.5C5.03,31,3,33.02,3,35.5C3,37.97,5.03,40,7.5,40H24c-2.75,0-5,2.25-5,5
				s2.25,5,5,5h-8c-2.2,0-4,1.8-4,4s1.8,4,4,4h11.5c-1.38,0-2.5,1.12-2.5,2.5s1.12,2.5,2.5,2.5h8c1.38,0,2.5-1.12,2.5-2.5
				S36.88,58,35.5,58H40c2.2,0,4-1.8,4-4s-1.8-4-4-4h8c2.75,0,5-2.25,5-5s-2.25-5-5-5h0.5c2.47,0,4.5-2.03,4.5-4.5
				c0-2.48-2.03-4.5-4.5-4.5H55c2.75,0,5-2.25,5-5S57.75,21,55,21z"/>
		</g>
	</g>
	
		<line style="fill:none;stroke:#000000;stroke-width:2;stroke-linejoin:round;stroke-miterlimit:10;" x1="9" y1="11" x2="41" y2="11"/>
	
		<line style="fill:none;stroke:#000000;stroke-width:2;stroke-linejoin:round;stroke-miterlimit:10;" x1="55" y1="21" x2="27" y2="21"/>
	
		<line style="fill:none;stroke:#000000;stroke-width:2;stroke-linejoin:round;stroke-miterlimit:10;" x1="15" y1="31" x2="39" y2="31"/>
	
		<line style="fill:none;stroke:#000000;stroke-width:2;stroke-linejoin:round;stroke-miterlimit:10;" x1="48" y1="40" x2="32" y2="40"/>
	
		<line style="fill:none;stroke:#000000;stroke-width:2;stroke-linejoin:round;stroke-miterlimit:10;" x1="24" y1="50" x2="32" y2="50"/>
	
		<line style="fill:none;stroke:#000000;stroke-width:2;stroke-linejoin:round;stroke-miterlimit:10;" x1="35" y1="58" x2="31" y2="58"/>
	
		<line style="fill:none;stroke:#000000;stroke-width:2;stroke-linejoin:round;stroke-miterlimit:10;" x1="34" y1="50" x2="36" y2="50"/>
	
		<line style="fill:none;stroke:#000000;stroke-width:2;stroke-linejoin:round;stroke-miterlimit:10;" x1="28" y1="40" x2="30" y2="40"/>
	
		<line style="fill:none;stroke:#000000;stroke-width:2;stroke-linejoin:round;stroke-miterlimit:10;" x1="41" y1="31" x2="43" y2="31"/>
	
		<line style="fill:none;stroke:#000000;stroke-width:2;stroke-linejoin:round;stroke-miterlimit:10;" x1="23" y1="21" x2="25" y2="21"/>
	
		<line style="fill:none;stroke:#000000;stroke-width:2;stroke-linejoin:round;stroke-miterlimit:10;" x1="43" y1="11" x2="45" y2="11"/>
</g>
</svg>
