<?xml version="1.0" encoding="iso-8859-1"?>
<!-- Generator: Adobe Illustrator 20.1.0, SVG Export Plug-In . SVG Version: 6.00 Build 0)  -->
<svg version="1.1" id="Rainy" xmlns="http://www.w3.org/2000/svg" xmlns:xlink="http://www.w3.org/1999/xlink" x="0px" y="0px"
	 viewBox="0 0 64 60" style="enable-background:new 0 0 64 60;" xml:space="preserve">
<g>
	<g>
		<g>
			<path style="fill:#00ABD5;" d="M47.93,12.12C56.41,13.08,63,20.27,63,29c0,9.39-7.61,17-17,17c-7.32,0-25.24,0-32,0
				C6.82,46,1,40.18,1,33s5.82-13,13-13c0.38,0,0.76,0.02,1.14,0.06C15.05,19.38,15,18.7,15,18c0-9.39,7.61-17,17-17
				C39.32,1,45.54,5.63,47.93,12.12z"/>
		</g>
		<g>
			<path style="fill:#00A2D4;" d="M11,36c0-7.18,5.82-13,13-13c0.38,0,0.76,0.02,1.14,0.06C25.05,22.38,25,21.7,25,21
				c0-9.271,7.422-16.793,16.648-16.982C38.91,2.118,35.589,1,32,1c-9.39,0-17,7.61-17,17c0,0.7,0.05,1.38,0.14,2.06
				C14.76,20.02,14.38,20,14,20C6.82,20,1,25.82,1,33s5.82,13,13,13c0.504,0,1.077,0,1.696,0C12.828,43.615,11,40.022,11,36z"/>
		</g>
	</g>
	<g>
		<g>
			<path d="M46,47v-2c8.822,0,16-7.178,16-16c0-8.142-6.096-14.973-14.18-15.889c-0.375-0.042-0.694-0.293-0.825-0.647
				C44.683,6.205,38.657,2,32,2c-8.822,0-16,7.178-16,16c0,0.586,0.042,1.22,0.129,1.937c0.036,0.299-0.064,0.599-0.274,0.815
				c-0.209,0.217-0.504,0.322-0.806,0.301C14.703,21.023,14.354,21,14,21C7.383,21,2,26.383,2,33s5.383,12,12,12v2
				C6.28,47,0,40.72,0,33s6.28-14,14-14c0.011,0,0.022,0,0.033,0C14.011,18.653,14,18.321,14,18c0-9.925,8.075-18,18-18
				c7.287,0,13.901,4.477,16.65,11.203C57.443,12.498,64,20.043,64,29C64,38.925,55.925,47,46,47z"/>
		</g>
		<g>
			<rect x="29" y="46" width="2" height="4"/>
		</g>
		<g>
			<rect x="39" y="46" width="2" height="4"/>
		</g>
		<g>
			<rect x="19" y="46" width="2" height="4"/>
		</g>
		<g>
			<rect x="29" y="56" width="2" height="4"/>
		</g>
		<g>
			<rect x="39" y="56" width="2" height="4"/>
		</g>
		<g>
			<rect x="19" y="56" width="2" height="4"/>
		</g>
		<g>
			<rect x="44" y="51" width="2" height="4"/>
		</g>
		<g>
			<rect x="34" y="51" width="2" height="4"/>
		</g>
		<g>
			<rect x="24" y="51" width="2" height="4"/>
		</g>
		<g>
			<rect x="14" y="51" width="2" height="4"/>
		</g>
		<g>
			<path d="M22,17h-2c0-6.065,4.935-11,11-11v2C26.038,8,22,12.038,22,17z"/>
		</g>
	</g>
</g>
</svg>
